<mxfile host="Electron" modified="2025-07-27T03:45:20.548Z" agent="Mozilla/5.0 (Windows NT 10.0; Win64; x64) AppleWebKit/537.36 (KHTML, like Gecko) draw.io/24.1.0 Chrome/120.0.6099.109 Electron/28.1.0 Safari/537.36" etag="2kvM5Jwfuiy_yngV-gFL" version="24.1.0" type="device">
  <diagram id="C5RBs43oDa-KdzZeNtuy" name="Page-1">
    <mxGraphModel dx="703" dy="1285" grid="1" gridSize="10" guides="1" tooltips="1" connect="1" arrows="1" fold="1" page="1" pageScale="1" pageWidth="827" pageHeight="1169" math="0" shadow="0">
      <root>
        <mxCell id="WIyWlLk6GJQsqaUBKTNV-0" />
        <mxCell id="WIyWlLk6GJQsqaUBKTNV-1" parent="WIyWlLk6GJQsqaUBKTNV-0" />
        <mxCell id="iN8XWv11aJuPGo7eJYd1-2" value="" style="edgeStyle=orthogonalEdgeStyle;rounded=0;orthogonalLoop=1;jettySize=auto;html=1;" edge="1" parent="WIyWlLk6GJQsqaUBKTNV-1" source="iN8XWv11aJuPGo7eJYd1-0" target="iN8XWv11aJuPGo7eJYd1-1">
          <mxGeometry relative="1" as="geometry" />
        </mxCell>
        <mxCell id="iN8XWv11aJuPGo7eJYd1-0" value="&lt;font style=&quot;font-size: 12px;&quot;&gt;開始&lt;/font&gt;" style="strokeWidth=2;html=1;shape=mxgraph.flowchart.terminator;whiteSpace=wrap;" vertex="1" parent="WIyWlLk6GJQsqaUBKTNV-1">
          <mxGeometry x="40" y="40" width="320" height="60" as="geometry" />
        </mxCell>
        <mxCell id="iN8XWv11aJuPGo7eJYd1-4" value="" style="edgeStyle=orthogonalEdgeStyle;rounded=0;orthogonalLoop=1;jettySize=auto;html=1;" edge="1" parent="WIyWlLk6GJQsqaUBKTNV-1" source="iN8XWv11aJuPGo7eJYd1-1" target="iN8XWv11aJuPGo7eJYd1-3">
          <mxGeometry relative="1" as="geometry" />
        </mxCell>
        <mxCell id="iN8XWv11aJuPGo7eJYd1-1" value="&lt;font style=&quot;font-size: 12px;&quot;&gt;系の入力&lt;/font&gt;&lt;div&gt;&lt;font size=&quot;3&quot;&gt;setter()&lt;/font&gt;&lt;/div&gt;" style="rounded=1;whiteSpace=wrap;html=1;absoluteArcSize=1;arcSize=14;strokeWidth=2;" vertex="1" parent="WIyWlLk6GJQsqaUBKTNV-1">
          <mxGeometry x="40" y="160" width="320" height="50" as="geometry" />
        </mxCell>
        <mxCell id="iN8XWv11aJuPGo7eJYd1-6" value="" style="edgeStyle=orthogonalEdgeStyle;rounded=0;orthogonalLoop=1;jettySize=auto;html=1;" edge="1" parent="WIyWlLk6GJQsqaUBKTNV-1" source="iN8XWv11aJuPGo7eJYd1-3">
          <mxGeometry relative="1" as="geometry">
            <mxPoint x="200.0000000000001" y="400" as="targetPoint" />
          </mxGeometry>
        </mxCell>
        <mxCell id="iN8XWv11aJuPGo7eJYd1-3" value="上向きスピンの数を&lt;span style=&quot;background-color: initial;&quot;&gt;1にする&lt;/span&gt;&lt;div&gt;&lt;div&gt;UP_NUM＝ 1&lt;/div&gt;&lt;/div&gt;" style="rounded=1;whiteSpace=wrap;html=1;absoluteArcSize=1;arcSize=14;strokeWidth=2;" vertex="1" parent="WIyWlLk6GJQsqaUBKTNV-1">
          <mxGeometry x="40" y="280" width="320" height="60" as="geometry" />
        </mxCell>
        <mxCell id="iN8XWv11aJuPGo7eJYd1-13" value="" style="edgeStyle=orthogonalEdgeStyle;rounded=0;orthogonalLoop=1;jettySize=auto;html=1;" edge="1" parent="WIyWlLk6GJQsqaUBKTNV-1" target="iN8XWv11aJuPGo7eJYd1-12">
          <mxGeometry relative="1" as="geometry">
            <mxPoint x="200.0000000000001" y="460" as="sourcePoint" />
          </mxGeometry>
        </mxCell>
        <mxCell id="iN8XWv11aJuPGo7eJYd1-27" value="" style="edgeStyle=orthogonalEdgeStyle;rounded=0;orthogonalLoop=1;jettySize=auto;html=1;" edge="1" parent="WIyWlLk6GJQsqaUBKTNV-1" source="iN8XWv11aJuPGo7eJYd1-12" target="iN8XWv11aJuPGo7eJYd1-19">
          <mxGeometry relative="1" as="geometry" />
        </mxCell>
        <mxCell id="iN8XWv11aJuPGo7eJYd1-12" value="全状態を配列に保管&lt;div&gt;また状態をキーとした要素番号も辞書に保管&lt;/div&gt;&lt;div&gt;&lt;div&gt;States.append(spins)&lt;/div&gt;&lt;div&gt;&lt;span style=&quot;background-color: initial;&quot;&gt;idToInd[spins] = StateInd&lt;/span&gt;&lt;/div&gt;&lt;/div&gt;" style="rounded=1;whiteSpace=wrap;html=1;absoluteArcSize=1;arcSize=14;strokeWidth=2;" vertex="1" parent="WIyWlLk6GJQsqaUBKTNV-1">
          <mxGeometry x="40" y="520" width="320" height="100" as="geometry" />
        </mxCell>
        <mxCell id="iN8XWv11aJuPGo7eJYd1-14" value="上向きスピンがUP_NUMになるパターンを全列挙&lt;div&gt;for ups in combinations(range(SITE_NUM),UP_NUM)&lt;/div&gt;" style="rounded=1;whiteSpace=wrap;html=1;absoluteArcSize=1;arcSize=14;strokeWidth=2;" vertex="1" parent="WIyWlLk6GJQsqaUBKTNV-1">
          <mxGeometry x="40" y="400" width="320" height="70" as="geometry" />
        </mxCell>
        <mxCell id="iN8XWv11aJuPGo7eJYd1-17" value="" style="endArrow=classic;html=1;rounded=0;exitX=1;exitY=0.5;exitDx=0;exitDy=0;entryX=1;entryY=0.5;entryDx=0;entryDy=0;" edge="1" parent="WIyWlLk6GJQsqaUBKTNV-1" source="iN8XWv11aJuPGo7eJYd1-12" target="iN8XWv11aJuPGo7eJYd1-14">
          <mxGeometry width="50" height="50" relative="1" as="geometry">
            <mxPoint x="310" y="580" as="sourcePoint" />
            <mxPoint x="360" y="530" as="targetPoint" />
            <Array as="points">
              <mxPoint x="400" y="570" />
              <mxPoint x="400" y="435" />
            </Array>
          </mxGeometry>
        </mxCell>
        <mxCell id="iN8XWv11aJuPGo7eJYd1-18" value="次の状態" style="text;html=1;align=center;verticalAlign=middle;resizable=0;points=[];autosize=1;strokeColor=none;fillColor=none;" vertex="1" parent="WIyWlLk6GJQsqaUBKTNV-1">
          <mxGeometry x="395" y="458" width="70" height="30" as="geometry" />
        </mxCell>
        <mxCell id="iN8XWv11aJuPGo7eJYd1-26" value="" style="edgeStyle=orthogonalEdgeStyle;rounded=0;orthogonalLoop=1;jettySize=auto;html=1;" edge="1" parent="WIyWlLk6GJQsqaUBKTNV-1" source="iN8XWv11aJuPGo7eJYd1-19" target="iN8XWv11aJuPGo7eJYd1-21">
          <mxGeometry relative="1" as="geometry" />
        </mxCell>
        <mxCell id="iN8XWv11aJuPGo7eJYd1-19" value="適当な基底ベクトルの係数を定める" style="rounded=1;whiteSpace=wrap;html=1;" vertex="1" parent="WIyWlLk6GJQsqaUBKTNV-1">
          <mxGeometry x="40" y="680" width="320" height="60" as="geometry" />
        </mxCell>
        <mxCell id="iN8XWv11aJuPGo7eJYd1-25" value="" style="edgeStyle=orthogonalEdgeStyle;rounded=0;orthogonalLoop=1;jettySize=auto;html=1;" edge="1" parent="WIyWlLk6GJQsqaUBKTNV-1" source="iN8XWv11aJuPGo7eJYd1-21" target="iN8XWv11aJuPGo7eJYd1-22">
          <mxGeometry relative="1" as="geometry" />
        </mxCell>
        <mxCell id="iN8XWv11aJuPGo7eJYd1-21" value="直交・正規化" style="rounded=1;whiteSpace=wrap;html=1;absoluteArcSize=1;arcSize=14;strokeWidth=2;" vertex="1" parent="WIyWlLk6GJQsqaUBKTNV-1">
          <mxGeometry x="40" y="800" width="320" height="60" as="geometry" />
        </mxCell>
        <mxCell id="iN8XWv11aJuPGo7eJYd1-24" value="" style="edgeStyle=orthogonalEdgeStyle;rounded=0;orthogonalLoop=1;jettySize=auto;html=1;" edge="1" parent="WIyWlLk6GJQsqaUBKTNV-1" source="iN8XWv11aJuPGo7eJYd1-22" target="iN8XWv11aJuPGo7eJYd1-23">
          <mxGeometry relative="1" as="geometry" />
        </mxCell>
        <mxCell id="iN8XWv11aJuPGo7eJYd1-22" value="新しい係数ベクトルを0で埋める&lt;div&gt;ret_hamil = np.full(len(vecData),0,dtype = np.complex128)&lt;br&gt;&lt;/div&gt;" style="rounded=1;whiteSpace=wrap;html=1;absoluteArcSize=1;arcSize=14;strokeWidth=2;" vertex="1" parent="WIyWlLk6GJQsqaUBKTNV-1">
          <mxGeometry x="40" y="920" width="320" height="70" as="geometry" />
        </mxCell>
        <mxCell id="iN8XWv11aJuPGo7eJYd1-29" value="" style="edgeStyle=orthogonalEdgeStyle;rounded=0;orthogonalLoop=1;jettySize=auto;html=1;" edge="1" parent="WIyWlLk6GJQsqaUBKTNV-1" source="iN8XWv11aJuPGo7eJYd1-23" target="iN8XWv11aJuPGo7eJYd1-28">
          <mxGeometry relative="1" as="geometry" />
        </mxCell>
        <mxCell id="iN8XWv11aJuPGo7eJYd1-23" value="1つのバンドに注目する" style="rounded=1;whiteSpace=wrap;html=1;absoluteArcSize=1;arcSize=14;strokeWidth=2;" vertex="1" parent="WIyWlLk6GJQsqaUBKTNV-1">
          <mxGeometry x="40" y="1040" width="320" height="50" as="geometry" />
        </mxCell>
        <mxCell id="iN8XWv11aJuPGo7eJYd1-31" value="" style="edgeStyle=orthogonalEdgeStyle;rounded=0;orthogonalLoop=1;jettySize=auto;html=1;" edge="1" parent="WIyWlLk6GJQsqaUBKTNV-1" source="iN8XWv11aJuPGo7eJYd1-28" target="iN8XWv11aJuPGo7eJYd1-30">
          <mxGeometry relative="1" as="geometry" />
        </mxCell>
        <mxCell id="iN8XWv11aJuPGo7eJYd1-28" value="係数ベクトルにベクトルの1/4J倍を加える" style="rounded=1;whiteSpace=wrap;html=1;absoluteArcSize=1;arcSize=14;strokeWidth=2;" vertex="1" parent="WIyWlLk6GJQsqaUBKTNV-1">
          <mxGeometry x="40" y="1180" width="320" height="50" as="geometry" />
        </mxCell>
        <mxCell id="iN8XWv11aJuPGo7eJYd1-30" value="バンドの手前と奥のスピンを1,0に固定する" style="rounded=1;whiteSpace=wrap;html=1;absoluteArcSize=1;arcSize=14;strokeWidth=2;" vertex="1" parent="WIyWlLk6GJQsqaUBKTNV-1">
          <mxGeometry x="40" y="1300" width="320" height="50" as="geometry" />
        </mxCell>
        <mxCell id="iN8XWv11aJuPGo7eJYd1-35" value="" style="edgeStyle=orthogonalEdgeStyle;rounded=0;orthogonalLoop=1;jettySize=auto;html=1;exitX=0.5;exitY=1;exitDx=0;exitDy=0;" edge="1" parent="WIyWlLk6GJQsqaUBKTNV-1" source="iN8XWv11aJuPGo7eJYd1-30" target="iN8XWv11aJuPGo7eJYd1-33">
          <mxGeometry relative="1" as="geometry">
            <mxPoint x="195" y="1360" as="sourcePoint" />
          </mxGeometry>
        </mxCell>
        <mxCell id="iN8XWv11aJuPGo7eJYd1-37" value="" style="edgeStyle=orthogonalEdgeStyle;rounded=0;orthogonalLoop=1;jettySize=auto;html=1;" edge="1" parent="WIyWlLk6GJQsqaUBKTNV-1" source="iN8XWv11aJuPGo7eJYd1-33" target="iN8XWv11aJuPGo7eJYd1-36">
          <mxGeometry relative="1" as="geometry" />
        </mxCell>
        <mxCell id="iN8XWv11aJuPGo7eJYd1-33" value="他のサイトの状態をUP_SITEの数を満たすように状態を選ぶ" style="rounded=1;whiteSpace=wrap;html=1;absoluteArcSize=1;arcSize=14;strokeWidth=2;" vertex="1" parent="WIyWlLk6GJQsqaUBKTNV-1">
          <mxGeometry x="39" y="1410" width="320" height="50" as="geometry" />
        </mxCell>
        <mxCell id="iN8XWv11aJuPGo7eJYd1-44" value="" style="edgeStyle=orthogonalEdgeStyle;rounded=0;orthogonalLoop=1;jettySize=auto;html=1;" edge="1" parent="WIyWlLk6GJQsqaUBKTNV-1" source="iN8XWv11aJuPGo7eJYd1-36" target="iN8XWv11aJuPGo7eJYd1-43">
          <mxGeometry relative="1" as="geometry" />
        </mxCell>
        <mxCell id="iN8XWv11aJuPGo7eJYd1-36" value="そのような状態とフリップ状態で適切な係数を加える" style="rounded=1;whiteSpace=wrap;html=1;absoluteArcSize=1;arcSize=14;strokeWidth=2;" vertex="1" parent="WIyWlLk6GJQsqaUBKTNV-1">
          <mxGeometry x="39" y="1520" width="320" height="50" as="geometry" />
        </mxCell>
        <mxCell id="iN8XWv11aJuPGo7eJYd1-38" value="" style="endArrow=classic;html=1;rounded=0;exitX=1;exitY=0.5;exitDx=0;exitDy=0;entryX=1;entryY=0.5;entryDx=0;entryDy=0;" edge="1" parent="WIyWlLk6GJQsqaUBKTNV-1" source="iN8XWv11aJuPGo7eJYd1-36" target="iN8XWv11aJuPGo7eJYd1-33">
          <mxGeometry width="50" height="50" relative="1" as="geometry">
            <mxPoint x="479" y="1350" as="sourcePoint" />
            <mxPoint x="529" y="1300" as="targetPoint" />
            <Array as="points">
              <mxPoint x="399" y="1545" />
              <mxPoint x="399" y="1435" />
            </Array>
          </mxGeometry>
        </mxCell>
        <mxCell id="iN8XWv11aJuPGo7eJYd1-39" value="次の状態" style="text;html=1;align=center;verticalAlign=middle;resizable=0;points=[];autosize=1;strokeColor=none;fillColor=none;" vertex="1" parent="WIyWlLk6GJQsqaUBKTNV-1">
          <mxGeometry x="370" y="1400" width="70" height="30" as="geometry" />
        </mxCell>
        <mxCell id="iN8XWv11aJuPGo7eJYd1-40" value="" style="endArrow=classic;html=1;rounded=0;exitX=1;exitY=0.75;exitDx=0;exitDy=0;entryX=1;entryY=0.5;entryDx=0;entryDy=0;" edge="1" parent="WIyWlLk6GJQsqaUBKTNV-1" source="iN8XWv11aJuPGo7eJYd1-36" target="iN8XWv11aJuPGo7eJYd1-28">
          <mxGeometry width="50" height="50" relative="1" as="geometry">
            <mxPoint x="395" y="1674" as="sourcePoint" />
            <mxPoint x="480" y="1410" as="targetPoint" />
            <Array as="points">
              <mxPoint x="440" y="1558" />
              <mxPoint x="440" y="1205" />
            </Array>
          </mxGeometry>
        </mxCell>
        <mxCell id="iN8XWv11aJuPGo7eJYd1-42" value="次のバンド" style="text;html=1;align=center;verticalAlign=middle;resizable=0;points=[];autosize=1;strokeColor=none;fillColor=none;" vertex="1" parent="WIyWlLk6GJQsqaUBKTNV-1">
          <mxGeometry x="390" y="1160" width="80" height="30" as="geometry" />
        </mxCell>
        <mxCell id="iN8XWv11aJuPGo7eJYd1-43" value="新しい係数ベクトルを返却する" style="rounded=1;whiteSpace=wrap;html=1;absoluteArcSize=1;arcSize=14;strokeWidth=2;" vertex="1" parent="WIyWlLk6GJQsqaUBKTNV-1">
          <mxGeometry x="39" y="1620" width="321" height="60" as="geometry" />
        </mxCell>
        <mxCell id="iN8XWv11aJuPGo7eJYd1-45" value="" style="endArrow=classic;html=1;rounded=0;exitX=1;exitY=0.5;exitDx=0;exitDy=0;entryX=1;entryY=0.5;entryDx=0;entryDy=0;" edge="1" parent="WIyWlLk6GJQsqaUBKTNV-1" source="iN8XWv11aJuPGo7eJYd1-43" target="iN8XWv11aJuPGo7eJYd1-21">
          <mxGeometry width="50" height="50" relative="1" as="geometry">
            <mxPoint x="220" y="1360" as="sourcePoint" />
            <mxPoint x="270" y="1310" as="targetPoint" />
            <Array as="points">
              <mxPoint x="520" y="1650" />
              <mxPoint x="520" y="830" />
            </Array>
          </mxGeometry>
        </mxCell>
        <mxCell id="iN8XWv11aJuPGo7eJYd1-46" value="収束するまで十分繰り返す" style="text;html=1;align=center;verticalAlign=middle;resizable=0;points=[];autosize=1;strokeColor=none;fillColor=none;" vertex="1" parent="WIyWlLk6GJQsqaUBKTNV-1">
          <mxGeometry x="370" y="790" width="170" height="30" as="geometry" />
        </mxCell>
      </root>
    </mxGraphModel>
  </diagram>
</mxfile>
